<svg xmlns="http://www.w3.org/2000/svg" width="1200" height="630" viewBox="0 0 1200 630">
  <defs>
    <linearGradient id="bg" x1="0" x2="1" y1="0" y2="1">
      <stop offset="0%" stop-color="#10131a" />
      <stop offset="100%" stop-color="#2646d5" />
    </linearGradient>
  </defs>
  <rect width="1200" height="630" fill="url(#bg)" rx="32" />
  <rect x="54" y="54" width="1092" height="522" rx="28" fill="rgba(255,255,255,0.06)" stroke="rgba(255,255,255,0.16)" />
  <g>
    <rect x="96" y="108" width="54" height="54" rx="16" fill="#335cff" />
    <path d="M113 136c0-7.2 5.8-13 13-13h5.8v6H126a7 7 0 0 0 0 14h5.8v6H126c-7.2 0-13-5.8-13-13Z" fill="#ffffff" />
    <circle cx="135.5" cy="129.5" r="4.5" fill="#ffffff" opacity="0.96" />
    <path d="M134.2 132.9 122.6 144.4" stroke="#ffffff" stroke-width="4.2" stroke-linecap="round" opacity="0.92" />
  </g>
  <g font-family="Inter, Arial, sans-serif" fill="#ffffff">
    <text x="166" y="147" font-size="32" font-weight="800" opacity="0.92">Operive</text>
    <text x="96" y="270" font-size="72" font-weight="800">AI workflows that save</text>
    <text x="96" y="348" font-size="72" font-weight="800">time and capture more leads.</text>
    <text x="96" y="430" font-size="28" opacity="0.8">Installed for small businesses. Implementation first. Start with one workflow.</text>
  </g>
</svg>
